<svg width="88" height="33" viewBox="0 0 88 33" fill="none" xmlns="http://www.w3.org/2000/svg"><g clip-path="url(#a)"><path d="M49.783 12.423c-.285-.364-.465-.815-.578-1.34l-3.213.207c.18 1.087.66 1.99 1.402 2.731.793.793 2.29 1.255 4.677 1.255 1.322 0 2.395-.2 3.222-.563l.005-.002a4.33 4.33 0 0 0 1.898-1.57l.001-.003c.45-.66.678-1.451.678-2.25v-.01a3.443 3.443 0 0 0-.486-1.85l-.002-.003c-.305-.516-.826-.984-1.611-1.384-.782-.398-2.096-.801-4.015-1.214a7.779 7.779 0 0 1-1.02-.269c-.255-.09-.5-.204-.677-.36a1.268 1.268 0 0 1-.499-.977c-.02-.502.232-.929.568-1.199.377-.305.889-.429 1.46-.429.699 0 1.302.163 1.783.56.386.32.63.752.776 1.263l3.165-.182c-.223-1.096-.709-1.864-1.41-2.355l-.004-.003c-.834-.598-2.098-.925-3.864-.925-1.447 0-2.548.188-3.303.516l-.01.004-.008.003a3.685 3.685 0 0 0-1.68 1.346 3.19 3.19 0 0 0-.548 1.786v.015a2.959 2.959 0 0 0 1.064 2.356l.006.006.006.005c.713.643 1.993 1.194 3.896 1.618l-1.68 3.217Zm0 0 .004.005c.57.707 1.358 1.046 2.332 1.046.679 0 1.307-.154 1.767-.56l-4.103-.491Zm-44.87-2.68v5.278h-3.41V1.805h6.839c1.338 0 2.323.112 2.961.325l.007.002c.594.189 1.12.581 1.47 1.106l.002.003a3.45 3.45 0 0 1 .584 2.019v.026c.041 1.222-.584 2.382-1.642 2.987-.43.243-.9.414-1.384.5l-.048.973c.332.094.676.255.986.45.22.185.41.4.598.646l.011.014.012.013c.21.239.395.508.554.796l1.753 3.388h-3.878l-2.215-4.115v-.001c-.3-.553-.6-1.014-.94-1.263l-.01-.007a2.39 2.39 0 0 0-1.369-.424h-.882v.5Zm0-2.675v.5h2.382l.02-.001c.42-.034.823-.1 1.225-.2.41-.074.77-.304 1.015-.638a1.916 1.916 0 0 0-.218-2.54l-.011-.01-.012-.01c-.227-.19-.523-.305-.839-.376a5.188 5.188 0 0 0-1.12-.106H4.912v3.381ZM2.117 24.51l-.006-.005-.007-.006a2.958 2.958 0 0 1-1.064-2.357v-.015c0-.632.193-1.265.548-1.785a3.685 3.685 0 0 1 1.68-1.346l.01-.004.008-.004c.756-.327 1.857-.515 3.303-.515 1.766 0 3.03.327 3.864.925.704.504 1.179 1.264 1.399 2.358l-3.166.182c-.146-.51-.388-.94-.771-1.26-.472-.404-1.098-.564-1.794-.547-.561.001-1.075.122-1.454.446a1.424 1.424 0 0 0-.567 1.197c.004.404.213.755.498.977.178.157.422.27.678.361a7.79 7.79 0 0 0 1.02.269c1.919.412 3.233.815 4.014 1.214.785.4 1.307.867 1.611 1.384l.002.003a3.59 3.59 0 0 1 .502 1.845c0 .79-.24 1.569-.68 2.237a4.33 4.33 0 0 1-1.897 1.569l-.005.002c-.826.362-1.9.563-3.222.563-2.386 0-3.882-.462-4.675-1.253-.74-.752-1.199-1.656-1.384-2.75l3.209-.207c.113.526.293.976.577 1.34.553.71 1.36 1.068 2.337 1.068.682 0 1.312-.155 1.773-.565.418-.34.685-.84.685-1.4a1.76 1.76 0 0 0-.655-1.37c-.23-.201-.562-.367-.95-.511-.406-.15-.916-.292-1.526-.422-1.903-.425-3.182-.975-3.895-1.618Z" fill="#fff" stroke="#000"/><path d="m14.998 31.559-.003-.002c-.876-.395-1.652-1.113-2.33-2.183-.651-1.027-.99-2.375-.99-4.079 0-2.27.598-3.94 1.733-5.074 1.14-1.14 2.766-1.748 4.963-1.748 1.734 0 3.023.353 3.946.99.797.574 1.439 1.42 1.911 2.571l-2.888.64a3.678 3.678 0 0 0-.34-.649l-.005-.006-.004-.007a3.026 3.026 0 0 0-1.083-.933 3.073 3.073 0 0 0-1.425-.327c-1.16 0-2.087.474-2.71 1.434-.48.713-.688 1.773-.688 3.078 0 1.588.233 2.828.828 3.562.59.726 1.413 1.06 2.41 1.06.939 0 1.726-.267 2.277-.86l.005-.005.006-.006c.404-.465.709-1.057.918-1.769l2.895.873a6.808 6.808 0 0 1-1.026 2.068 4.835 4.835 0 0 1-1.872 1.481c-.745.33-1.721.514-2.948.514-1.502 0-2.697-.218-3.58-.623Zm15.67.384V18.711h3.393v4.983h5.807v-4.983h3.426v13.232h-3.426V26.18h-5.807v5.763h-3.394Zm25.989-2.867v.002a5.465 5.465 0 0 1-2.218 2.275c-.975.539-2.209.83-3.722.83-1.557 0-2.797-.248-3.759-.714a5.567 5.567 0 0 1-2.349-2.218l-.003-.005c-.598-1.02-.919-2.313-.919-3.918 0-2.23.624-3.903 1.796-5.075 1.173-1.173 2.847-1.796 5.06-1.796 2.28 0 3.954.61 5.124 1.766 1.17 1.155 1.777 2.796 1.777 4.993 0 1.617-.277 2.885-.787 3.86Zm-8.666-.31.004.005c.633.747 1.513 1.116 2.563 1.116 1.057 0 1.94-.347 2.578-1.1.648-.766.899-2.024.899-3.635 0-1.382-.276-2.519-.937-3.26-.648-.742-1.523-1.09-2.562-1.092a3.196 3.196 0 0 0-2.52 1.11c-.662.76-.935 1.947-.935 3.433 0 1.475.275 2.652.91 3.423Zm27.928.31v.002a5.465 5.465 0 0 1-2.218 2.275c-.975.539-2.209.83-3.722.83-1.557 0-2.797-.248-3.759-.714a5.566 5.566 0 0 1-2.349-2.218l-.003-.005c-.598-1.02-.919-2.313-.919-3.918 0-2.23.624-3.903 1.796-5.075 1.173-1.173 2.847-1.796 5.059-1.796 2.284 0 3.97.611 5.123 1.764 1.157 1.158 1.78 2.8 1.78 4.995 0 1.617-.278 2.885-.788 3.86Zm-8.666-.31.004.005c.633.747 1.513 1.116 2.563 1.116 1.057 0 1.94-.347 2.578-1.1.648-.766.899-2.024.899-3.635 0-1.382-.276-2.519-.937-3.26-.648-.742-1.523-1.09-2.562-1.092-.961-.035-1.9.38-2.522 1.113-.66.76-.933 1.946-.933 3.43 0 1.475.275 2.652.91 3.423Zm13.885.674H87.5v2.502H77.23v-13.23h3.41v10.73h.5Z" fill="#fff" stroke="#000"/><path d="M71.903 17.39c4.424-3.333 5.788-8.984 3.047-12.621-2.74-3.637-8.548-3.883-12.972-.55-4.423 3.334-5.787 8.984-3.047 12.621 2.741 3.637 8.55 3.884 12.972.55Z" fill="#FAFF1C"/><path d="M71.903 17.39c4.424-3.333 5.788-8.984 3.047-12.621-2.74-3.637-8.548-3.883-12.972-.55-4.423 3.334-5.787 8.984-3.047 12.621 2.741 3.637 8.55 3.884 12.972.55Z" stroke="#000" stroke-miterlimit="10"/><path d="m63.008 14.948.625-.58c.047.044.096.087.146.127l.01.008.012.008c.184.132.41.22.673.22a.999.999 0 0 0 .588-.2c.289-.187.5-.54.467-.93l-.002-.023-.004-.022a2.106 2.106 0 0 0-.43-.967l-1.926-2.71.77-.54 1.672 2.378.004.007.005.006c.3.4.529.827.703 1.3.074.28.051.587-.063.863a2.092 2.092 0 0 1-.797.937l-.008.005-.008.005c-.496.347-.871.508-1.15.554h-.003c-.25.044-.526.004-.797-.117-.178-.09-.342-.2-.486-.329Zm5.808-3.041a1.822 1.822 0 0 1-.82-.34l.675-.533c.137.097.286.174.442.23l.012.004.012.004c.472.142.966.047 1.358-.247a1.46 1.46 0 0 0 .601-.785 1.059 1.059 0 0 0-.67-1.322l-.008-.003c-.038-.013-.146-.05-.269-.054a1.783 1.783 0 0 0-.546.067 5.19 5.19 0 0 0-.689.241c-.78.321-1.325.414-1.684.379a1.037 1.037 0 0 1-.775-.457l-.006-.01-.007-.009a1.21 1.21 0 0 1-.21-.631 1.32 1.32 0 0 1 .213-.738c.269-.381.589-.7.973-.947l.007-.004.007-.005c.627-.432 1.116-.596 1.483-.596.21 0 .428.06.655.21l-.646.51a1.346 1.346 0 0 0-1.511.09l-.024.019-.021.021-.01.01a1.286 1.286 0 0 0-.488.632.914.914 0 0 0 .126.846l.008.011.008.01c.122.153.337.32.631.331.154.013.306-.019.43-.054.142-.04.299-.102.468-.178.782-.328 1.34-.499 1.692-.553l.013-.002c.262-.048.528-.023.764.079h.003c.204.087.382.24.507.433l.005.007.005.008c.166.238.264.526.276.831.012.307-.07.604-.238.87-.25.373-.567.69-.94.939l-.007.005c-.85.587-1.426.744-1.799.682l-.006-.001Z" fill="#fff" stroke="#000"/></g><defs><clipPath id="a"><path fill="#fff" d="M0 0h88v32.682H0z"/></clipPath></defs></svg>